<svg xmlns="http://www.w3.org/2000/svg" viewBox="0 0 645 392" width="645" height="392">
  <path id="s0" fill="#062337" d="M237.44 179.5 C237.44 145.36 275.75 117.68 323 117.68 C370.25 117.68 408.56 145.36 408.56 179.5 C408.56 181.71 406.77 183.5 404.56 183.5 L241.44 183.5 C239.23 183.5 237.44 181.71 237.44 179.5 Z"/>
  <path id="s1" fill="#3EA89E" d="M323 197.5 L407.27 197.5 C409.48 197.5 411.17 199.29 411.05 201.49 L408.95 239.51 C408.83 241.71 406.94 243.5 404.73 243.5 L323 243.5 L241.27 243.5 C239.06 243.5 237.17 241.71 237.05 239.51 L234.95 201.49 C234.83 199.29 236.52 197.5 238.73 197.5 L323 197.5 Z"/>
  <path id="s2" fill="#FD8E27" d="M323 256.5 L402.28 256.5 C404.49 256.5 405.75 258.21 405.08 260.32 L393.02 298.68 C392.36 300.79 390.03 302.5 387.82 302.5 L323 302.5 L258.18 302.5 C255.97 302.5 253.64 300.79 252.98 298.68 L240.92 260.32 C240.25 258.21 241.51 256.5 243.72 256.5 L323 256.5 Z"/>
  <path id="s3" fill="#F23325" d="M323 314.5 L380.5 314.97 C382.71 314.99 383.77 316.63 382.86 318.65 Q367.72 352.4 333 379.5 Q328.43 382.04 323 382.5 Q317.57 382.04 313 379.5 Q278.28 352.4 263.14 318.65 C262.23 316.63 263.29 314.99 265.5 314.97 L323 314.5 Z"/>
  <path id="s4" fill="#062337" d="M329 113.5 L325.5 113 Q324.29 92.35 335.5 75 Q347.49 60 365 55.5 Q376.51 53.49 384.5 60 Q387.73 66.28 387.5 74 Q385.37 82.36 381.5 90 Q365.98 107.55 344 109.5 Q336.5 111.5 329 113.5 Z"/>
  <use href="#s4" transform="matrix(-1 0 0 1 646 0)"/>
</svg>
